<?xml version="1.0" encoding="iso-8859-1"?>
<!-- Generator: Adobe Illustrator 16.0.0, SVG Export Plug-In . SVG Version: 6.00 Build 0)  -->
<!DOCTYPE svg PUBLIC "-//W3C//DTD SVG 1.1 Tiny//EN" "http://www.w3.org/Graphics/SVG/1.1/DTD/svg11-tiny.dtd">
<svg version="1.1" baseProfile="tiny" id="Layer_1" xmlns="http://www.w3.org/2000/svg"
	 x="0px" y="0px" width="27px" height="27px" viewBox="0 0 27 27" xml:space="preserve">
<path fill-rule="evenodd" fill="#C5CDD4" d="M21.79,8.41V15c0.41,0.02,0.82,0.07,1.21,0.15V7.81c0-0.16-0.06-0.31-0.18-0.42
	l-7.26-7.21C15.45,0.06,15.29,0,15.13,0H1.82C0.81,0,0,0.81,0,1.8v23.4C0,26.19,0.81,27,1.82,27h13.67
	c-0.28-0.37-0.52-0.78-0.73-1.2H1.82c-0.34,0-0.61-0.27-0.61-0.6V1.8c0-0.33,0.27-0.6,0.61-0.6h12.71v6.61c0,0.33,0.27,0.6,0.6,0.6
	H21.79z M15.74,2.05l5.19,5.16h-5.19V2.05z"/>
<path fill="#4C6379" d="M9.53,9.58H5.18c-0.32,0-0.58-0.27-0.58-0.61c0-0.34,0.26-0.61,0.58-0.61h4.35c0.32,0,0.58,0.27,0.58,0.61
	C10.11,9.31,9.85,9.58,9.53,9.58z"/>
<path fill="#4C6379" d="M15.44,13.44H5.18c-0.32,0-0.58-0.28-0.58-0.62c0-0.33,0.26-0.61,0.58-0.61h10.26
	c0.32,0,0.58,0.28,0.58,0.61C16.02,13.16,15.76,13.44,15.44,13.44z"/>
<path fill="#4C6379" d="M15.44,17.29H5.18c-0.32,0-0.58-0.27-0.58-0.61c0-0.34,0.26-0.61,0.58-0.61h10.26
	c0.32,0,0.58,0.27,0.58,0.61C16.02,17.02,15.76,17.29,15.44,17.29z"/>
<path fill="#4C6379" d="M15.44,21.15H5.18c-0.32,0-0.58-0.27-0.58-0.61s0.26-0.61,0.58-0.61h10.26c0.32,0,0.58,0.27,0.58,0.61
	S15.76,21.15,15.44,21.15z"/>
<path fill-rule="evenodd" fill="#F6F6F6" d="M1.82,1.2h12.71v6.61c0,0.33,0.27,0.6,0.6,0.6h6.66V25.2c0,0.33-0.27,0.6-0.61,0.6H1.82
	c-0.34,0-0.61-0.27-0.61-0.6V1.8C1.21,1.47,1.48,1.2,1.82,1.2z"/>
<path fill-rule="evenodd" fill="#18A9E2" d="M22.5,27c2.48,0,4.5-2.02,4.5-4.5S24.98,18,22.5,18S18,20.02,18,22.5S20.02,27,22.5,27z
	"/>
<path fill-rule="evenodd" fill="#FFFFFF" d="M22.5,24.5c0.28,0,0.5-0.22,0.5-0.5v-1h1c0.28,0,0.5-0.22,0.5-0.5S24.28,22,24,22h-1v-1
	c0-0.28-0.22-0.5-0.5-0.5S22,20.72,22,21v1h-1c-0.28,0-0.5,0.22-0.5,0.5S20.72,23,21,23h1v1C22,24.28,22.22,24.5,22.5,24.5z"/>
</svg>
