<?xml version="1.0" encoding="iso-8859-1"?>
<!-- Generator: Adobe Illustrator 16.0.0, SVG Export Plug-In . SVG Version: 6.00 Build 0)  -->
<!DOCTYPE svg PUBLIC "-//W3C//DTD SVG 1.1 Tiny//EN" "http://www.w3.org/Graphics/SVG/1.1/DTD/svg11-tiny.dtd">
<svg version="1.1" baseProfile="tiny" id="Layer_1" xmlns="http://www.w3.org/2000/svg"
	 x="0px" y="0px" width="46.001px" height="27px" viewBox="0 0 46.001 27" xml:space="preserve">
<path fill-rule="evenodd" fill="#BEC7CF" d="M37,1.85c2.66,0.05,3.26,2.19,3.29,2.28c0.24,0.96,0.19,2.01,0.19,2.02
	c-0.01,0.21,0.13,0.4,0.34,0.44c0,0,0.14,0.04,0.21,0.19c0.06,0.14,0.14,0.54-0.35,1.46l-0.06,0.04c-0.19,0.12-0.32,0.21-0.37,0.4
	c-0.2,0.7-1.49,3.27-3.25,3.36c-1.76-0.09-3.05-2.66-3.25-3.36c-0.05-0.19-0.18-0.28-0.37-0.4l-0.06-0.04
	c-0.49-0.92-0.41-1.32-0.35-1.46c0.07-0.15,0.21-0.19,0.21-0.19c0.21-0.04,0.35-0.23,0.34-0.44c0-0.01-0.05-1.06,0.19-2.02
	C33.741,4.04,34.34,1.9,37,1.85z M37.971,19.99l0.67,0.01c0.09,0,0.17-0.03,0.24-0.08c4.33-0.19,6.67-0.69,6.8-0.72
	c0.19-0.04,0.33-0.23,0.32-0.43c-0.19-4.12-2.65-5.4-4.49-6c-1.01-0.33-1.68-0.81-1.99-1.06c0.87-0.88,1.45-2.03,1.66-2.67
	l0.06-0.03c0.14-0.1,0.24-0.16,0.3-0.28c0.53-0.97,0.67-1.74,0.41-2.31c-0.12-0.26-0.3-0.43-0.46-0.52c0-0.42-0.03-1.22-0.22-1.99
	C41.26,3.88,40.471,1,37.09,1H37h-0.09c-3.38,0-4.17,2.88-4.18,2.91c-0.19,0.77-0.22,1.57-0.22,1.99c-0.16,0.09-0.34,0.26-0.46,0.52
	c-0.26,0.57-0.12,1.34,0.41,2.31c0.06,0.12,0.16,0.18,0.3,0.28l0.06,0.03c0.21,0.64,0.79,1.79,1.66,2.67
	c-0.31,0.25-0.98,0.73-1.99,1.06c-0.45,0.15-0.94,0.33-1.42,0.59c0.34,0.13,0.67,0.29,0.98,0.47c0.23-0.09,0.46-0.18,0.69-0.25
	c0.55-0.18,1.01-0.4,1.39-0.61h0.07c0.06,0,0.13-0.02,0.2-0.06c0.37-0.22,0.65-0.43,0.82-0.57c0.5,0.33,1.07,0.55,1.69,0.55H37h0.09
	c0.62,0,1.19-0.22,1.69-0.55c0.17,0.14,0.45,0.35,0.82,0.57c0.07,0.04,0.14,0.06,0.2,0.06h0.07c0.38,0.21,0.84,0.43,1.39,0.61
	c1.78,0.58,3.63,1.62,3.9,4.86c-0.88,0.16-3.43,0.55-7.38,0.67C37.871,19.39,37.94,19.69,37.971,19.99z"/>
<path fill-rule="evenodd" fill="#BEC7CF" d="M10.05,19.77l-0.13,0.22h0.17L10.05,19.77z M9,1.85c2.66,0.05,3.26,2.19,3.29,2.28
	c0.24,0.96,0.19,2.01,0.19,2.02c-0.01,0.21,0.13,0.4,0.34,0.44c0,0,0.14,0.04,0.21,0.19c0.06,0.14,0.14,0.54-0.35,1.46l-0.06,0.04
	c-0.19,0.12-0.32,0.21-0.37,0.4c-0.2,0.7-1.49,3.27-3.25,3.36c-1.76-0.09-3.05-2.66-3.25-3.36c-0.05-0.19-0.18-0.28-0.37-0.4
	L5.32,8.24c-0.49-0.92-0.41-1.32-0.35-1.46c0.07-0.15,0.21-0.19,0.21-0.19c0.21-0.04,0.35-0.23,0.34-0.44
	c0-0.01-0.05-1.06,0.19-2.02C5.741,4.04,6.34,1.9,9,1.85z M13.541,8.73l0.11-0.21c-0.25-0.77-0.25-1.42-0.01-1.93
	c0.06-0.14,0.14-0.25,0.21-0.35c-0.1-0.16-0.24-0.27-0.36-0.34c0-0.42-0.03-1.22-0.22-1.99C13.26,3.88,12.471,1,9.09,1H9h-0.09
	c-3.38,0-4.17,2.88-4.18,2.91C4.541,4.68,4.51,5.48,4.51,5.9c-0.16,0.09-0.34,0.26-0.46,0.52c-0.26,0.57-0.12,1.34,0.41,2.31
	c0.06,0.12,0.16,0.18,0.3,0.28l0.06,0.03c0.21,0.64,0.79,1.79,1.66,2.67c-0.31,0.25-0.98,0.73-1.99,1.06c-1.84,0.6-4.3,1.88-4.49,6
	c-0.01,0.2,0.13,0.39,0.32,0.43c0.13,0.03,2.47,0.53,6.8,0.72C7.19,19.97,7.271,20,7.36,20l1.24-0.01c0.15-0.31,0.3-0.59,0.46-0.86
	H9c-4.4-0.09-7.22-0.52-8.16-0.69c0.27-3.24,2.12-4.28,3.9-4.86c0.55-0.18,1.01-0.4,1.39-0.61h0.07c0.06,0,0.13-0.02,0.2-0.06
	c0.37-0.22,0.65-0.43,0.82-0.57c0.5,0.33,1.07,0.55,1.69,0.55H9h0.09c0.62,0,1.19-0.22,1.69-0.55c0.17,0.14,0.45,0.35,0.82,0.57
	c0.07,0.04,0.14,0.06,0.2,0.06h0.07c0.38,0.21,0.84,0.43,1.39,0.61l0.1,0.03c0.38-0.18,0.78-0.33,1.19-0.44
	c-0.36-0.16-0.71-0.29-1.04-0.4c-1.01-0.33-1.68-0.81-1.99-1.06c0.87-0.88,1.45-2.03,1.66-2.67l0.06-0.03
	C13.38,8.91,13.48,8.85,13.541,8.73z"/>
<path fill-rule="evenodd" fill="#BEC7CF" d="M17.491,10.13c-0.7-1.27-0.59-1.84-0.51-2.03c0.1-0.22,0.3-0.28,0.31-0.28
	c0.29-0.05,0.5-0.32,0.49-0.61c0-0.02-0.08-1.49,0.28-2.83C18.101,4.25,19,1.19,23,1.19c3.99,0,4.9,3.06,4.93,3.18
	c0.36,1.35,0.28,2.82,0.28,2.84c-0.01,0.29,0.2,0.56,0.49,0.61c0,0,0.21,0.06,0.31,0.27c0.08,0.18,0.2,0.75-0.51,2.04l-0.09,0.06
	c-0.27,0.17-0.47,0.29-0.54,0.55c-0.29,0.99-2.24,4.71-4.87,4.71c-2.64,0-4.59-3.72-4.88-4.71c-0.07-0.26-0.27-0.38-0.54-0.55
	L17.491,10.13z M23,16.63c0.96,0,1.84-0.34,2.61-0.88c0.23,0.2,0.68,0.55,1.32,0.91c0.09,0.06,0.19,0.08,0.29,0.08
	c0.21,0,0.41-0.11,0.52-0.3c0.17-0.28,0.07-0.65-0.22-0.81c-0.44-0.25-0.77-0.48-0.98-0.65c1.26-1.23,2.11-2.84,2.42-3.73l0.08-0.05
	c0.21-0.13,0.35-0.22,0.44-0.38c0.77-1.36,0.98-2.45,0.61-3.23c-0.18-0.38-0.44-0.61-0.68-0.74c0-0.59-0.04-1.7-0.33-2.78
	C29.07,4.03,27.931,0,23,0s-6.08,4.03-6.09,4.07c-0.29,1.08-0.33,2.19-0.33,2.78c-0.24,0.13-0.5,0.36-0.68,0.74
	c-0.36,0.78-0.16,1.87,0.61,3.23c0.09,0.16,0.23,0.25,0.44,0.38l0.08,0.05c0.31,0.89,1.16,2.5,2.42,3.73
	c-0.45,0.35-1.42,1.02-2.89,1.48c-2.69,0.84-6.28,2.63-6.56,8.39c-0.01,0.29,0.19,0.55,0.47,0.61c0.22,0.04,5.46,1.11,15.06,1.11
	c0.33,0,0.6-0.26,0.6-0.59s-0.27-0.59-0.6-0.59c-7.8,0-12.77-0.74-14.3-1c0.4-4.52,3.08-5.98,5.68-6.8
	c1.86-0.58,3.04-1.46,3.48-1.84C21.15,16.29,22.03,16.63,23,16.63z"/>
<path fill-rule="evenodd" fill="#18A9E2" d="M32.5,27c2.48,0,4.5-2.02,4.5-4.5S34.98,18,32.5,18S28,20.02,28,22.5S30.021,27,32.5,27
	z"/>
<path fill-rule="evenodd" fill="#FFFFFF" d="M32.5,24.5c0.28,0,0.5-0.22,0.5-0.5v-1h1c0.28,0,0.5-0.22,0.5-0.5S34.28,22,34,22h-1v-1
	c0-0.28-0.22-0.5-0.5-0.5S32,20.72,32,21v1h-1c-0.28,0-0.5,0.22-0.5,0.5S30.721,23,31,23h1v1C32,24.28,32.221,24.5,32.5,24.5z"/>
</svg>
