<?xml version="1.0" encoding="iso-8859-1"?>
<!-- Generator: Adobe Illustrator 16.0.0, SVG Export Plug-In . SVG Version: 6.00 Build 0)  -->
<!DOCTYPE svg PUBLIC "-//W3C//DTD SVG 1.1 Tiny//EN" "http://www.w3.org/Graphics/SVG/1.1/DTD/svg11-tiny.dtd">
<svg version="1.1" baseProfile="tiny" id="Layer_1" xmlns="http://www.w3.org/2000/svg"
	 x="0px" y="0px" width="31px" height="31px" viewBox="0 0 31 31" xml:space="preserve">
<polygon fill-rule="evenodd" fill="#F6F6F6" points="1,6 1,28 26,28 26,6 17,6 17,12 11,12 11,6 "/>
<path fill-rule="evenodd" fill="#C5CDD4" d="M17.04,27.92L1.62,27.93c-0.3,0-0.54-0.24-0.54-0.54V6.44c0-0.29,0.24-0.53,0.54-0.53
	h9.69v4.83c0,0.89,0.72,1.61,1.61,1.61h2.16c0.89,0,1.61-0.72,1.61-1.61V5.91h9.69c0.3,0,0.54,0.24,0.54,0.53v11.6
	c0.37,0.04,0.73,0.1,1.08,0.18V6.44c0-0.48-0.22-0.91-0.56-1.2c-0.01-0.07-0.05-0.14-0.09-0.2l-3.11-3.98
	C23.77,0.45,22.84,0,22.08,0H5.92C5.16,0,4.23,0.45,3.76,1.06L0.65,5.04C0.61,5.1,0.57,5.17,0.56,5.24C0.22,5.53,0,5.96,0,6.44
	v20.95C0,28.28,0.72,29,1.62,29h15.6C17.14,28.65,17.08,28.29,17.04,27.92z M4.61,1.71C4.87,1.38,5.5,1.07,5.92,1.07h5.39v3.76H2.18
	L4.61,1.71z M15.62,1.07v9.67c0,0.3-0.25,0.54-0.54,0.54h-2.16c-0.29,0-0.54-0.24-0.54-0.54V1.07H15.62z M22.08,1.07
	c0.42,0,1.05,0.31,1.31,0.64l2.43,3.12h-9.13V1.07H22.08z"/>
<path fill="#28BD8B" d="M20.61,31c0.26,0,0.51-0.12,0.65-0.37l1.57-2.14l2.33,1.4c0.14,0.1,0.31,0.15,0.49,0.15
	c0.06,0,0.13-0.01,0.2-0.02c0.23-0.05,0.43-0.21,0.55-0.42l1.91-4.04L31,26.68L29.63,21l-5.48,2.83l2.46,1.02l-1.33,3.06l-2.31-1.35
	c-0.14-0.1-0.31-0.14-0.47-0.14c-0.06,0-0.12,0.01-0.17,0.02c-0.22,0.06-0.41,0.2-0.52,0.39L20,29.49l0.07,1.29l0.1,0.08
	C20.31,30.95,20.46,31,20.61,31z"/>
</svg>
