<?xml version="1.0" encoding="iso-8859-1"?>
<!-- Generator: Adobe Illustrator 16.0.0, SVG Export Plug-In . SVG Version: 6.00 Build 0)  -->
<!DOCTYPE svg PUBLIC "-//W3C//DTD SVG 1.1 Tiny//EN" "http://www.w3.org/Graphics/SVG/1.1/DTD/svg11-tiny.dtd">
<svg version="1.1" baseProfile="tiny" id="Layer_1" xmlns="http://www.w3.org/2000/svg"
	 x="0px" y="0px" width="28px" height="32px" viewBox="0 0 28 32" xml:space="preserve">
<path fill-rule="evenodd" fill="#F6F6F6" d="M24,5H1v22l11.16-5.08c0.11-0.04,0.22-0.06,0.34-0.06c0.11,0,0.23,0.02,0.34,0.06L24,31
	V5z"/>
<path fill-rule="evenodd" fill="#C5CDD4" d="M24.42,1.16C24.74,1.16,25,0.9,25,0.58C25,0.26,24.74,0,24.42,0H0.58
	C0.26,0,0,0.26,0,0.58C0,0.9,0.26,1.16,0.58,1.16H24.42z M23.83,5.2v14.9c0.4,0.07,0.79,0.16,1.17,0.27V4.62
	c0-0.32-0.26-0.58-0.58-0.58H0.58C0.26,4.04,0,4.3,0,4.62v23.8c0,0.2,0.11,0.39,0.28,0.5c0.18,0.1,0.39,0.11,0.58,0.01l11.64-6.05
	l3.19,2.27c0.15-0.37,0.34-0.73,0.55-1.08l-3.47-2.36c-0.08-0.05-0.18-0.07-0.27-0.07s-0.19,0.02-0.27,0.07L1.17,27.46V5.2H23.83z"
	/>
<path fill-rule="evenodd" fill="#28BD8B" d="M26.28,32l-0.47-2.88c-0.04-0.24,0.04-0.48,0.2-0.64L28,26.44l-2.75-0.42
	c-0.22-0.04-0.42-0.19-0.52-0.4L23.5,23l-1.23,2.62c-0.1,0.21-0.3,0.36-0.52,0.4L19,26.44l1.99,2.04c0.16,0.16,0.24,0.4,0.2,0.64
	L20.72,32l2.46-1.36c0.2-0.11,0.44-0.11,0.64,0L26.28,32z"/>
</svg>
