<?xml version="1.0" encoding="iso-8859-1"?>
<!-- Generator: Adobe Illustrator 16.0.0, SVG Export Plug-In . SVG Version: 6.00 Build 0)  -->
<!DOCTYPE svg PUBLIC "-//W3C//DTD SVG 1.1 Tiny//EN" "http://www.w3.org/Graphics/SVG/1.1/DTD/svg11-tiny.dtd">
<svg version="1.1" baseProfile="tiny" id="Layer_1" xmlns="http://www.w3.org/2000/svg"
	 x="0px" y="0px" width="18px" height="20px" viewBox="0 0 18 20" xml:space="preserve">
<path fill-rule="evenodd" fill="#A1B1BE" d="M13.85,15.71h-1.39v-1.42h1.39V15.71z M13.85,12.86h-1.39v-1.43h1.39V12.86z
	 M11.08,15.71H9.69v-1.42h1.39V15.71z M11.08,12.86H9.69v-1.43h1.39V12.86z M8.31,15.71H6.92v-1.42h1.39V15.71z M8.31,12.86H6.92
	v-1.43h1.39V12.86z M5.54,15.71H4.15v-1.42h1.39V15.71z M5.54,12.86H4.15v-1.43h1.39V12.86z M16.62,8.57H1.38v10h15.24V8.57z
	 M16.62,2.86h-2.77v1.43h-1.39V2.86H5.54v1.43H4.15V2.86H1.38v4.28h15.24V2.86z M0,20V1.43h4.15V0h1.39v1.43h6.92V0h1.39v1.43H18V20
	H0z"/>
</svg>
