<?xml version="1.0" encoding="iso-8859-1"?>
<!-- Generator: Adobe Illustrator 16.0.0, SVG Export Plug-In . SVG Version: 6.00 Build 0)  -->
<!DOCTYPE svg PUBLIC "-//W3C//DTD SVG 1.1 Tiny//EN" "http://www.w3.org/Graphics/SVG/1.1/DTD/svg11-tiny.dtd">
<svg version="1.1" baseProfile="tiny" id="Layer_1" xmlns="http://www.w3.org/2000/svg"
	 x="0px" y="0px" width="42px" height="42px" viewBox="0 0 42 42" xml:space="preserve">
<g>
	<path fill-rule="evenodd" fill="#F6F6F6" d="M1.94,22.39L22.52,1.95c0.13-0.13,0.28-0.19,0.75-0.19l0.78,0.01l15.57,0.08
		c0.31,0,0.63,0.24,0.63,0.63l-0.08,16.71c0,0.16-0.07,0.33-0.19,0.45l-0.17,0.16c-12,11.96-20.14,19.99-20.74,20.47
		c0.05-0.05-0.03-0.03-0.12-0.03c-0.16,0-0.32-0.07-0.43-0.18L1.94,23.28C1.82,23.15,1.75,23,1.75,22.83S1.82,22.5,1.94,22.39z"/>
	<path fill-rule="evenodd" fill="#C8CFD6" d="M30.47,7.95c0.48-0.48,1.12-0.75,1.8-0.75c0.67,0,1.31,0.27,1.79,0.75
		c0.99,0.99,0.99,2.6,0,3.59c-0.96,0.96-2.63,0.96-3.59,0c-0.48-0.48-0.74-1.12-0.74-1.8C29.73,9.07,29.99,8.43,30.47,7.95z
		 M32.27,14.04c1.14,0,2.22-0.44,3.03-1.26c1.67-1.67,1.67-4.4,0-6.08c-1.63-1.62-4.45-1.62-6.07,0c-0.8,0.82-1.25,1.9-1.25,3.04
		c0,1.15,0.45,2.23,1.25,3.04C30.04,13.59,31.12,14.04,32.27,14.04z M1.94,22.39L22.52,1.95c0.13-0.13,0.28-0.19,0.75-0.19
		l0.78,0.01l15.57,0.08c0.31,0,0.63,0.24,0.63,0.63l-0.08,16.71c0,0.16-0.07,0.33-0.19,0.45l-0.17,0.16
		c-12,11.96-20.14,19.99-20.74,20.47c0.05-0.05-0.03-0.03-0.12-0.03c-0.16,0-0.32-0.07-0.43-0.18L1.94,23.28
		C1.82,23.15,1.75,23,1.75,22.83S1.82,22.5,1.94,22.39z M0.69,24.51L17.27,41.3c0.44,0.44,1.06,0.7,1.68,0.7
		c0.34,0,0.68-0.07,0.99-0.22c0.21-0.09,0.54-0.24,21.11-20.73l0.17-0.17c0.44-0.45,0.7-1.06,0.7-1.68L42,2.49
		c0.01-1.3-1.05-2.38-2.36-2.4L23.27,0c-0.64,0-1.36,0.08-1.99,0.7L0.71,21.14C0.25,21.59,0,22.18,0,22.82
		C0,23.46,0.24,24.06,0.69,24.51z"/>
</g>
</svg>
