<?xml version="1.0" encoding="iso-8859-1"?>
<!-- Generator: Adobe Illustrator 16.0.0, SVG Export Plug-In . SVG Version: 6.00 Build 0)  -->
<!DOCTYPE svg PUBLIC "-//W3C//DTD SVG 1.1 Tiny//EN" "http://www.w3.org/Graphics/SVG/1.1/DTD/svg11-tiny.dtd">
<svg version="1.1" baseProfile="tiny" id="Layer_1" xmlns="http://www.w3.org/2000/svg"
	 x="0px" y="0px" width="15px" height="15px" viewBox="0 0 15 15" xml:space="preserve">
<path fill-rule="evenodd" fill="#FFFFFF" d="M13.13,3.75l-4.69,4.689L6.56,6.56l4.69-4.69L13.13,3.75z M4.69,10.311V7.5h0.94
	L7.5,9.38v0.931H4.69z M13.13,1.87l-0.94-0.93V0C12.189,0,15-0.03,15,2.81h-0.939L13.13,1.87z M13.13,15H1.88
	C0.84,15,0,14.16,0,13.12V1.87C0,0.84,0.84,0,1.88,0h8.431L8.439,1.87H2.81c-0.52,0-0.93,0.42-0.93,0.94v9.379
	c0,0.521,0.41,0.931,0.93,0.931h9.379c0.521,0,0.94-0.41,0.94-0.931V6.56L15,4.69v8.43C15,14.16,14.16,15,13.13,15z"/>
</svg>
