<?xml version="1.0" encoding="iso-8859-1"?>
<!-- Generator: Adobe Illustrator 16.0.0, SVG Export Plug-In . SVG Version: 6.00 Build 0)  -->
<!DOCTYPE svg PUBLIC "-//W3C//DTD SVG 1.1 Tiny//EN" "http://www.w3.org/Graphics/SVG/1.1/DTD/svg11-tiny.dtd">
<svg version="1.1" baseProfile="tiny" id="Layer_1" xmlns="http://www.w3.org/2000/svg"
	 x="0px" y="0px" width="27px" height="27px" viewBox="0 0 27 27" xml:space="preserve">
<path fill-rule="evenodd" fill="#C5CDD4" d="M7.491,10.13C6.791,8.86,6.9,8.29,6.98,8.1c0.1-0.22,0.3-0.28,0.31-0.28
	c0.29-0.05,0.5-0.32,0.49-0.61c0-0.02-0.08-1.49,0.28-2.83C8.101,4.25,9,1.19,13,1.19c3.99,0,4.9,3.06,4.93,3.18
	c0.36,1.35,0.28,2.82,0.28,2.84c-0.01,0.29,0.2,0.56,0.49,0.61c0,0,0.21,0.06,0.31,0.27c0.08,0.18,0.2,0.75-0.51,2.04l-0.09,0.06
	c-0.27,0.17-0.47,0.29-0.54,0.55c-0.29,0.99-2.24,4.71-4.87,4.71c-2.64,0-4.59-3.72-4.88-4.71c-0.07-0.26-0.27-0.38-0.54-0.55
	L7.491,10.13z M13,16.63c0.96,0,1.84-0.34,2.61-0.88c0.23,0.2,0.68,0.55,1.32,0.91c0.09,0.06,0.19,0.08,0.29,0.08
	c0.21,0,0.41-0.11,0.52-0.3c0.17-0.28,0.07-0.65-0.22-0.81c-0.44-0.25-0.77-0.48-0.98-0.65c1.26-1.23,2.11-2.84,2.42-3.73l0.08-0.05
	c0.21-0.13,0.35-0.22,0.44-0.38c0.77-1.36,0.98-2.45,0.61-3.23c-0.18-0.38-0.44-0.61-0.68-0.74c0-0.59-0.04-1.7-0.33-2.78
	C19.07,4.03,17.931,0,13,0s-6.08,4.03-6.09,4.07c-0.29,1.08-0.33,2.19-0.33,2.78c-0.24,0.13-0.5,0.36-0.68,0.74
	c-0.36,0.78-0.16,1.87,0.61,3.23c0.09,0.16,0.23,0.25,0.44,0.38l0.08,0.05c0.31,0.89,1.16,2.5,2.42,3.73
	C9,15.33,8.03,16,6.561,16.46C3.871,17.3,0.28,19.09,0,24.85c-0.01,0.29,0.19,0.55,0.47,0.61c0.22,0.04,5.46,1.11,15.06,1.11
	c0.33,0,0.6-0.26,0.6-0.59s-0.27-0.59-0.6-0.59c-7.8,0-12.77-0.74-14.3-1c0.4-4.52,3.08-5.98,5.68-6.8
	c1.86-0.58,3.04-1.46,3.48-1.84C11.15,16.29,12.03,16.63,13,16.63z"/>
<path fill-rule="evenodd" fill="#18A9E2" d="M25.161,19.84l0.92,0.92H27c0-2.79-2.76-2.76-2.76-2.76v0.92L25.161,19.84z"/>
<path fill-rule="evenodd" fill="#18A9E2" d="M25.161,19.84l0.92,0.92H27c0-2.79-2.76-2.76-2.76-2.76v0.92L25.161,19.84z"/>
<polygon fill-rule="evenodd" fill="#18A9E2" points="18,27 20.76,27 20.76,26.08 18.92,24.24 18,24.24 "/>
<polygon fill-rule="evenodd" fill="#18A9E2" points="18,27 20.76,27 20.76,26.08 18.92,24.24 18,24.24 "/>
<rect x="21.199" y="20.039" transform="matrix(0.7071 0.7071 -0.7071 0.7071 22.5001 -9.3202)" fill-rule="evenodd" fill="#18A9E2" width="2.603" height="4.921"/>
<rect x="21.199" y="20.039" transform="matrix(0.7071 0.7071 -0.7071 0.7071 22.5001 -9.3202)" fill-rule="evenodd" fill="#18A9E2" width="2.603" height="4.921"/>
</svg>
