<?xml version="1.0" encoding="iso-8859-1"?>
<!-- Generator: Adobe Illustrator 16.0.0, SVG Export Plug-In . SVG Version: 6.00 Build 0)  -->
<!DOCTYPE svg PUBLIC "-//W3C//DTD SVG 1.1//EN" "http://www.w3.org/Graphics/SVG/1.1/DTD/svg11.dtd">
<svg version="1.1" id="Layer_1" xmlns="http://www.w3.org/2000/svg"  x="0px" y="0px"
	 width="24px" height="22px" viewBox="0 0 24 22" style="enable-background:new 0 0 24 22;" xml:space="preserve">
<path style="fill-rule:evenodd;clip-rule:evenodd;fill:#91A1B0;" d="M3.297,4.377c0.97,0,1.747-0.79,1.747-1.769
	c0-0.973-0.776-1.765-1.747-1.765c-0.968,0-1.754,0.792-1.754,1.765C1.543,3.587,2.329,4.377,3.297,4.377z M1.741,4.942
	c-0.956,0-1.852,0.788-1.729,1.739l0.248,1.816c0.191,0.967,0.768,1.769,1.72,1.769c0,0,1.579-3.413,4.585-3.49l0.009-0.071
	c0.121-0.968-0.766-1.763-1.719-1.763H1.741z M20.703,4.377c0.968,0,1.752-0.79,1.752-1.769c0-0.973-0.784-1.765-1.752-1.765
	c-0.97,0-1.747,0.792-1.747,1.765C18.956,3.587,19.732,4.377,20.703,4.377z M22.259,4.942h-3.114c-0.953,0-1.84,0.795-1.718,1.763
	l0.009,0.071c3.005,0.078,4.584,3.49,4.584,3.49c0.945,0,1.529-0.802,1.718-1.769l0.25-1.816C24.112,5.73,23.214,4.942,22.259,4.942
	z M16.093,4.123C16.093,1.842,14.26,0,11.996,0c-2.258,0-4.09,1.842-4.09,4.123c0,2.283,1.832,4.124,4.09,4.124
	C14.26,8.246,16.093,6.405,16.093,4.123z M15.642,9.567h-2.204c0.011,0.21,0.041,1.244-0.545,1.679c0,0,0.954,5.208,0.55,6.895
	c-0.164,0.703-0.787,2.48-1.504,2.47c-0.701-0.012-1.247-1.775-1.384-2.47c-0.337-1.703,0.801-6.889,0.801-6.889
	c-0.168-0.065-0.494-0.385-0.571-1.685h-2.43c-2.224-0.001-4.303,1.867-4.026,4.121l0.575,4.252C5.36,20.199,6.709,22,8.93,22h6.138
	c2.225,0,3.577-1.866,4.025-4.12l0.576-4.25C19.954,11.403,17.866,9.567,15.642,9.567z"/>
</svg>
