<?xml version="1.0" encoding="iso-8859-1"?>
<!-- Generator: Adobe Illustrator 16.0.0, SVG Export Plug-In . SVG Version: 6.00 Build 0)  -->
<!DOCTYPE svg PUBLIC "-//W3C//DTD SVG 1.1 Tiny//EN" "http://www.w3.org/Graphics/SVG/1.1/DTD/svg11-tiny.dtd">
<svg version="1.1" baseProfile="tiny" id="Layer_1" xmlns="http://www.w3.org/2000/svg"
	 x="0px" y="0px" width="18px" height="18px" viewBox="0 0 18 18" xml:space="preserve">
<path fill-rule="evenodd" fill="#FFFFFF" d="M10.47,2.08H7.53v5.89H6.22l2.76,3.179l2.8-3.179H10.47V2.08z M16.04,11.76
	c0,2.301-1.76,4.16-3.93,4.16H5.89c-2.17,0-3.93-1.859-3.93-4.16V6.24c0-2.3,1.76-4.16,3.93-4.16h6.22c2.17,0,3.93,1.86,3.93,4.16
	V11.76z M12.76,0H5.24C2.34,0,0,2.48,0,5.54v6.92C0,15.521,2.34,18,5.24,18h7.52c2.9,0,5.24-2.479,5.24-5.54V5.54
	C18,2.48,15.66,0,12.76,0z"/>
</svg>
