<?xml version="1.0" encoding="iso-8859-1"?>
<!-- Generator: Adobe Illustrator 16.0.0, SVG Export Plug-In . SVG Version: 6.00 Build 0)  -->
<!DOCTYPE svg PUBLIC "-//W3C//DTD SVG 1.1//EN" "http://www.w3.org/Graphics/SVG/1.1/DTD/svg11.dtd">
<svg version="1.1" id="Layer_1" xmlns="http://www.w3.org/2000/svg"  x="0px" y="0px"
	 width="19px" height="18px" viewBox="0 0 19 18" style="enable-background:new 0 0 19 18;" xml:space="preserve">
<path style="fill:#A1B1BE;" d="M9.5,0C4.253,0,0,4.03,0,9.001S4.253,18,9.5,18S19,13.972,19,9.001S14.747,0,9.5,0z M2.049,5.668
	c0.815-1.633,2.21-2.956,3.934-3.729C6.513,1.701,7.144,2.002,7.28,2.543l0.142,0.558c0.096,0.377-0.085,0.778-0.454,0.948
	C5.79,4.591,4.835,5.498,4.265,6.615c-0.184,0.361-0.623,0.536-1.031,0.43L2.655,6.894C2.1,6.749,1.802,6.161,2.049,5.668
	L2.049,5.668z M11.725,2.524c0.153-0.526,0.773-0.808,1.294-0.574c1.724,0.772,3.119,2.094,3.935,3.728
	c0.251,0.502-0.066,1.099-0.637,1.229l-0.589,0.134c-0.398,0.091-0.821-0.082-1-0.431c-0.573-1.116-1.53-2.021-2.708-2.561
	c-0.382-0.175-0.566-0.59-0.454-0.977L11.725,2.524z M4.964,9.016c0-2.382,2.038-4.313,4.552-4.313c2.514,0,4.552,1.931,4.552,4.313
	c0,2.381-2.038,4.313-4.552,4.313C7.002,13.329,4.964,11.397,4.964,9.016z M16.943,12.344c-0.816,1.633-2.21,2.956-3.934,3.729
	c-0.531,0.238-1.161-0.063-1.298-0.604l-0.142-0.558c-0.096-0.377,0.085-0.778,0.454-0.947c1.178-0.543,2.133-1.45,2.703-2.567
	c0.184-0.361,0.622-0.536,1.03-0.43l0.58,0.151C16.892,11.263,17.189,11.851,16.943,12.344z M7.266,15.487
	c-0.153,0.526-0.773,0.808-1.293,0.574c-1.724-0.772-3.12-2.094-3.936-3.727c-0.251-0.503,0.066-1.1,0.637-1.23l0.589-0.134
	c0.398-0.091,0.821,0.081,1,0.43c0.573,1.116,1.529,2.021,2.708,2.561c0.381,0.175,0.566,0.59,0.454,0.977L7.266,15.487z"/>
</svg>
