<?xml version="1.0" encoding="iso-8859-1"?>
<!-- Generator: Adobe Illustrator 16.0.0, SVG Export Plug-In . SVG Version: 6.00 Build 0)  -->
<!DOCTYPE svg PUBLIC "-//W3C//DTD SVG 1.1//EN" "http://www.w3.org/Graphics/SVG/1.1/DTD/svg11.dtd">
<svg version="1.1" id="Layer_1" xmlns="http://www.w3.org/2000/svg"  x="0px" y="0px"
	 width="20px" height="20px" viewBox="0 0 20 20" style="enable-background:new 0 0 20 20;" xml:space="preserve">
<path style="fill-rule:evenodd;clip-rule:evenodd;fill:#92A2B1;" d="M0,17.5V20h20v-2.5H0z M18.75,6.25H1.25V7.5h17.5V6.25z M10,0
	L2.5,5h15L10,0z M5,16.25h1.25V15H5v-5h1.25V8.75H5H2.5H1.25V10H2.5v5H1.25v1.25H2.5H5z M12.5,10V8.75h-1.25h-2.5H7.5V10h1.25v5H7.5
	v1.25h1.25h2.5h1.25V15h-1.25v-5H12.5z M18.75,10V8.75H17.5H15h-1.25V10H15v5h-1.25v1.25H15h2.5h1.25V15H17.5v-5H18.75z"/>
</svg>
