<?xml version="1.0" encoding="iso-8859-1"?>
<!-- Generator: Adobe Illustrator 16.0.0, SVG Export Plug-In . SVG Version: 6.00 Build 0)  -->
<!DOCTYPE svg PUBLIC "-//W3C//DTD SVG 1.1//EN" "http://www.w3.org/Graphics/SVG/1.1/DTD/svg11.dtd">
<svg version="1.1" id="Layer_1" xmlns="http://www.w3.org/2000/svg"  x="0px" y="0px"
	 width="21px" height="23px" viewBox="0 0 21 23" style="enable-background:new 0 0 21 23;" xml:space="preserve">
<path style="fill:#91A1B0;" d="M2.172,18.688H0.724c-0.4,0-0.724-0.321-0.724-0.719c0-0.397,0.324-0.719,0.724-0.719h1.448
	c0.4,0,0.724,0.321,0.724,0.719C2.896,18.367,2.573,18.688,2.172,18.688z M21,2.875v17.25C21,21.712,19.703,23,18.104,23H4.345
	c-1.6,0-2.896-1.288-2.896-2.875h0.724c1.198,0,2.172-0.968,2.172-2.156c0-1.189-0.975-2.156-2.172-2.156H1.448V7.188h0.724
	c1.198,0,2.172-0.967,2.172-2.156c0-1.189-0.975-2.157-2.172-2.157H1.448C1.448,1.288,2.745,0,4.345,0h13.759
	C19.703,0,21,1.288,21,2.875z M19.552,2.875c0-0.792-0.649-1.437-1.448-1.437H7.241v20.125h10.862c0.799,0,1.448-0.646,1.448-1.438
	V2.875z M0.724,5.75h1.448c0.4,0,0.724-0.322,0.724-0.719c0-0.398-0.324-0.719-0.724-0.719H0.724C0.324,4.313,0,4.634,0,5.032
	C0,5.429,0.324,5.75,0.724,5.75z M16.379,2.875H9.414c-0.4,0-0.724,0.321-0.724,0.719c0,0.398,0.324,0.719,0.724,0.719h6.966
	c0.4,0,0.724-0.321,0.724-0.719C17.104,3.196,16.78,2.875,16.379,2.875z M14.379,5.75H9.414c-0.4,0-0.724,0.321-0.724,0.718
	s0.324,0.719,0.724,0.719h4.966c0.4,0,0.724-0.321,0.724-0.719S14.78,5.75,14.379,5.75z M13.379,8.625H9.414
	c-0.4,0-0.724,0.321-0.724,0.719c0,0.397,0.324,0.718,0.724,0.718h3.966c0.4,0,0.724-0.321,0.724-0.718
	C14.104,8.946,13.78,8.625,13.379,8.625z M15.379,11.5H9.414c-0.4,0-0.724,0.321-0.724,0.719c0,0.397,0.324,0.719,0.724,0.719h5.966
	c0.4,0,0.724-0.321,0.724-0.719C16.104,11.821,15.78,11.5,15.379,11.5z M13.379,14.375H9.414c-0.4,0-0.724,0.321-0.724,0.719
	s0.324,0.719,0.724,0.719h3.966c0.4,0,0.724-0.321,0.724-0.719S13.78,14.375,13.379,14.375z M11.207,17.25H9.414
	c-0.4,0-0.724,0.321-0.724,0.719c0,0.398,0.324,0.719,0.724,0.719h1.793c0.4,0,0.724-0.321,0.724-0.719
	C11.931,17.571,11.607,17.25,11.207,17.25z"/>
</svg>
