<?xml version="1.0" encoding="iso-8859-1"?>
<!-- Generator: Adobe Illustrator 16.0.0, SVG Export Plug-In . SVG Version: 6.00 Build 0)  -->
<!DOCTYPE svg PUBLIC "-//W3C//DTD SVG 1.1 Tiny//EN" "http://www.w3.org/Graphics/SVG/1.1/DTD/svg11-tiny.dtd">
<svg version="1.1" baseProfile="tiny" id="Layer_1" xmlns="http://www.w3.org/2000/svg"
	 x="0px" y="0px" width="52px" height="49px" viewBox="0 0 52 49" xml:space="preserve">
<path fill-rule="evenodd" fill="#DFE4E9" d="M28.73,35.54c0.169-0.101,0.339-0.17,0.529-0.221L28.73,35.54z M40.76,4.8L41.061,0
	L38.64,4.34l-0.579-0.33L37.02,6.49l-0.709-0.53L35.59,9.11L34.5,8.3l-0.28,2.94l-1.12-0.39l0.261,3.22l-0.771-0.2l0.25,3.3
	l-0.529-0.13l-0.051,2.01c-0.09,3.08,0.53,6.6,0.36,9.69l-0.431-0.79l-0.759-2.08l-0.44,0.02l-0.801-2.66l-0.64,0.35l-1.119-3.3
	c-0.281,0.42-0.681,0.31-0.82-0.07c-0.62-1.65-1.541-2.5-1.88-3.33l-0.61-1.55l-0.77,0.51l-1.56-3.41l-0.72,0.6l-1.66-3.2
	l-1.13,0.92l-2.11-2.88l-0.59,0.85c-0.6-0.34-0.76-1.66-1.39-1.94l-0.6,1.05l-1.98-2.11l-0.58,0.57l-4.3-3.68l2.36,5.38L9.36,8.3
	l1.6,2.75l-1.01,0.3l2.46,2.93l-1.54,0.46l2.57,2.36l-1.14,0.82l3.25,2.07l-0.74,0.61l3.23,2.02l-0.5,0.42l1.86,1.49
	c2.51,2.01,5.55,4.88,8.37,5.84c1.03,0.34,5.711,2.3,1.541,1.1l-1.07-0.2c-2.24-1.12-5.73-1.229-8.4-1.529l-1.98-0.23l0.06,0.551
	l-3.2-0.721l0.08,0.8l-3.11-0.709l0.23,1.159L9,30.46l0.64,1.189l-3.18,0.281l0.42,0.779l-2.56,0.68L4.56,34L0,35.79l4.73,0.38v0.69
	c0.71,0.17,1.76-0.36,2.43-0.08L6.9,37.76c0.54,0.21,1.41-0.479,1.97-0.32L8.73,38.29l2.98-0.45l0.13,1.221l2.83-0.911l0.08,0.79
	l2.92-1.089l0.15,0.76l1.27-0.55l3.07-0.86c0.31-0.14,0.62,0.03,0.54,0.449l2.6-1.299l0.17,0.589c1.11-0.25,1.78-1.02,2.74-1.04
	l-1.021,0.711c-1.149,0.5,0.011,0.42-0.579,0.7c-3.22,1.529-4.75,4.359-5.73,6.549l-1,0.851l0.6,0.29l-1.06,1.181l0.33,0.289
	L17.94,49l2.81-1.53l1.62-0.61c1.13-0.319,0.96-0.679,1.69-0.939c1.93-0.7,3.2-1.22,5.25-4.3c0.909-1.36,2.37-3.181,2.779-4.84
	l0.5-0.73l0.19-0.16l-0.58,1.48c-2.48,6.66,2.8,7.59,2.38-2.601l4.02,5.311c0.381-1.87-2.01-4.42-3.14-5.59l0.67,0.3l1.02,0.05
	c5.74,2.38,8.471-3.489,0.641-2.32c-0.79,0.11,1.31-1.06,2.109-1.159c0.961-0.13,1.04-0.53,1.29-0.57
	c3.301-0.55,5.391-2.71,6.841-4.43l1.119-0.51l-0.469-0.411l1.259-0.799l-0.229-0.35L52,22.47l-2.939,0.67l-1.621,0.14l-1.77,0.41
	c-1.93,0.14-3.2,0.29-5.83,2.541c-0.979,0.83-1.859,1.39-2.609,2.479c-1.73,2.53,1.2-4.09,0.779-3.279l1.65-2.421
	c-0.43,0.02-0.55-0.31-0.37-0.59l1.279-2.95l0.73-1.2l-0.73-0.26l1.491-2.77L41.3,15.05l1.3-2.71l-1.189-0.3l0.87-2.92l-0.86,0.02
	c-0.07-0.59,0.729-1.37,0.6-1.94l-1.01,0.13c-0.18-0.71,0.5-1.69,0.43-2.43L40.76,4.8z"/>
<linearGradient id="SVGID_1_" gradientUnits="userSpaceOnUse" x1="0" y1="24.5" x2="52" y2="24.5">
	<stop  offset="0" style="stop-color:#73C272"/>
	<stop  offset="1" style="stop-color:#32AE9C"/>
</linearGradient>
<path fill-rule="evenodd" fill="url(#SVGID_1_)" d="M28.73,35.54c0.169-0.101,0.339-0.17,0.529-0.221L28.73,35.54z M40.76,4.8
	L41.061,0L38.64,4.34l-0.579-0.33L37.02,6.49l-0.709-0.53L35.59,9.11L34.5,8.3l-0.28,2.94l-1.12-0.39l0.261,3.22l-0.771-0.2
	l0.25,3.3l-0.529-0.13l-0.051,2.01c-0.09,3.08,0.53,6.6,0.36,9.69l-0.431-0.79l-0.759-2.08l-0.44,0.02l-0.801-2.66l-0.64,0.35
	l-1.119-3.3c-0.281,0.42-0.681,0.31-0.82-0.07c-0.62-1.65-1.541-2.5-1.88-3.33l-0.61-1.55l-0.77,0.51l-1.56-3.41l-0.72,0.6
	l-1.66-3.2l-1.13,0.92l-2.11-2.88l-0.59,0.85c-0.6-0.34-0.76-1.66-1.39-1.94l-0.6,1.05l-1.98-2.11l-0.58,0.57l-4.3-3.68l2.36,5.38
	L9.36,8.3l1.6,2.75l-1.01,0.3l2.46,2.93l-1.54,0.46l2.57,2.36l-1.14,0.82l3.25,2.07l-0.74,0.61l3.23,2.02l-0.5,0.42l1.86,1.49
	c2.51,2.01,5.55,4.88,8.37,5.84c1.03,0.34,5.711,2.3,1.541,1.1l-1.07-0.2c-2.24-1.12-5.73-1.229-8.4-1.529l-1.98-0.23l0.06,0.551
	l-3.2-0.721l0.08,0.8l-3.11-0.709l0.23,1.159L9,30.46l0.64,1.189l-3.18,0.281l0.42,0.779l-2.56,0.68L4.56,34L0,35.79l4.73,0.38v0.69
	c0.71,0.17,1.76-0.36,2.43-0.08L6.9,37.76c0.54,0.21,1.41-0.479,1.97-0.32L8.73,38.29l2.98-0.45l0.13,1.221l2.83-0.911l0.08,0.79
	l2.92-1.089l0.15,0.76l1.27-0.55l3.07-0.86c0.31-0.14,0.62,0.03,0.54,0.449l2.6-1.299l0.17,0.589c1.11-0.25,1.78-1.02,2.74-1.04
	l-1.021,0.711c-1.149,0.5,0.011,0.42-0.579,0.7c-3.22,1.529-4.75,4.359-5.73,6.549l-1,0.851l0.6,0.29l-1.06,1.181l0.33,0.289
	L17.94,49l2.81-1.53l1.62-0.61c1.13-0.319,0.96-0.679,1.69-0.939c1.93-0.7,3.2-1.22,5.25-4.3c0.909-1.36,2.37-3.181,2.779-4.84
	l0.5-0.73l0.19-0.16l-0.58,1.48c-2.48,6.66,2.8,7.59,2.38-2.601l4.02,5.311c0.381-1.87-2.01-4.42-3.14-5.59l0.67,0.3l1.02,0.05
	c5.74,2.38,8.471-3.489,0.641-2.32c-0.79,0.11,1.31-1.06,2.109-1.159c0.961-0.13,1.04-0.53,1.29-0.57
	c3.301-0.55,5.391-2.71,6.841-4.43l1.119-0.51l-0.469-0.411l1.259-0.799l-0.229-0.35L52,22.47l-2.939,0.67l-1.621,0.14l-1.77,0.41
	c-1.93,0.14-3.2,0.29-5.83,2.541c-0.979,0.83-1.859,1.39-2.609,2.479c-1.73,2.53,1.2-4.09,0.779-3.279l1.65-2.421
	c-0.43,0.02-0.55-0.31-0.37-0.59l1.279-2.95l0.73-1.2l-0.73-0.26l1.491-2.77L41.3,15.05l1.3-2.71l-1.189-0.3l0.87-2.92l-0.86,0.02
	c-0.07-0.59,0.729-1.37,0.6-1.94l-1.01,0.13c-0.18-0.71,0.5-1.69,0.43-2.43L40.76,4.8z"/>
</svg>
