<?xml version="1.0" encoding="utf-8"?>
<svg version="1.1" id="Layer_1" xmlns="http://www.w3.org/2000/svg" xmlns:xlink="http://www.w3.org/1999/xlink" x="0px" y="0px"
	 viewBox="0 100 792 298.3" xml:space="preserve">
<style type="text/css">
	.st0{fill:#8DC63F;}
	.st1{opacity:0.7;}
	.st2{opacity:0.7;fill:#8DC63F;}
</style>
<g>
	<g>
		<g>
			<path d="M85.3,343.5H45.1c-1.1,0-2.1-0.9-2.1-2.1V217.7c0-1.1-0.9-2.1-2.1-2.1H5.1c-1.1,0-2.1-0.9-2.1-2.1v-32.1
				c0-1.1,0.9-2.1,2.1-2.1h120.2c1.1,0,2.1,0.9,2.1,2.1v32.1c0,1.1-0.9,2.1-2.1,2.1H89.5c-1.1,0-2.1,0.9-2.1,2.1v123.6
				C87.4,342.5,86.5,343.5,85.3,343.5z"/>
			<path d="M270.9,343.5h-40.4c-1.1,0-2.1-0.9-2.1-2.1v-62.7c0-1.1-0.9-2.1-2.1-2.1H179c-1.1,0-2.1,0.9-2.1,2.1v62.7
				c0,1.1-0.9,2.1-2.1,2.1h-40.4c-1.1,0-2.1-0.9-2.1-2.1V181.5c0-1.1,0.9-2.1,2.1-2.1h40.4c1.1,0,2.1,0.9,2.1,2.1v56.7
				c0,1.1,0.9,2.1,2.1,2.1h47.4c1.1,0,2.1-0.9,2.1-2.1v-56.7c0-1.1,0.9-2.1,2.1-2.1h40.4c1.1,0,2.1,0.9,2.1,2.1v159.9
				C273,342.5,272.1,343.5,270.9,343.5z"/>
			<path d="M392.7,293.6c0,10.2-2.6,19.2-7.7,27.1c-5.2,7.9-12.6,14-22.3,18.4c-9.7,4.4-21.1,6.6-34.2,6.6
				c-10.9,0-20.1-0.8-27.5-2.3c-7-1.5-14.3-3.9-21.9-7.5c-0.7-0.3-1.2-1.1-1.2-1.9v-34.8c0-1.5,1.6-2.5,3-1.9
				c7.5,3.6,15.3,6.5,23.4,8.7c9.1,2.4,17.5,3.6,25.1,3.6c6.6,0,11.4-1.1,14.5-3.4c3.1-2.3,4.6-5.2,4.6-8.8c0-2.2-0.6-4.2-1.9-5.9
				c-1.2-1.7-3.2-3.4-5.9-5.1c-2.7-1.7-10-5.2-21.8-10.5c-10.7-4.9-18.7-9.6-24.1-14.1c-5.3-4.6-9.3-9.8-11.9-15.7
				c-2.6-5.9-3.9-12.9-3.9-21c0-15.1,5.5-26.9,16.5-35.3c11-8.5,26.1-12.7,45.3-12.7c16.4,0,33.1,3.7,50.1,11c1,0.4,1.5,1.6,1.1,2.7
				l-12,30.3c-0.4,1.1-1.7,1.6-2.8,1.1c-14.5-6.4-27.1-9.7-37.7-9.7c-5.8,0-9.9,1-12.6,3c-2.6,2-3.9,4.5-3.9,7.5
				c0,3.2,1.7,6.1,5,8.6c3.3,2.5,12.4,7.2,27.1,13.9c14.1,6.4,24,13.2,29.5,20.5S392.7,282.6,392.7,293.6z"/>
			<path d="M487.2,342.1l-4.5-13c-0.3-0.8-1.1-1.4-2-1.4l0,0c-0.7,0-1.3,0.4-1.7,0.9c-3.6,5.4-8.5,9.5-14.7,12.5
				c-6.5,3.1-14.2,4.7-23.1,4.7c-14,0-24.9-4.1-32.7-12.2c-7.8-8.1-11.7-19.6-11.7-34.4v-80.7c0-1.1,0.9-2.1,2.1-2.1h39.7
				c1.1,0,2.1,0.9,2.1,2.1v67.4c0,8.3,1.2,14.6,3.5,18.9c2.4,4.3,6.2,6.4,11.6,6.4c7.6,0,12.9-3,16.2-8.9c3.2-5.9,4.8-16,4.8-30.1
				v-53.6c0-1.1,0.9-2.1,2.1-2.1h39.7c1.1,0,2.1,0.9,2.1,2.1v123c0,1.1-0.9,2.1-2.1,2.1h-29.5C488.3,343.5,487.5,342.9,487.2,342.1z
				"/>
			<path d="M568.1,343.5h-39.7c-1.1,0-2.1-0.9-2.1-2.1v-123c0-1.1,0.9-2.1,2.1-2.1h39.7c1.1,0,2.1,0.9,2.1,2.1v123
				C570.2,342.5,569.2,343.5,568.1,343.5z"/>
			<path d="M646.7,311c5.3,0,11.4-1.2,18.5-3.5c1.3-0.4,2.7,0.6,2.7,2v27.7c0,0.8-0.5,1.6-1.3,1.9c-5.4,2.3-10.6,3.9-15.6,4.9
				c-5.3,1.1-11.6,1.6-18.8,1.6c-14.7,0-25.4-3.6-31.9-10.8c-6.5-7.2-9.8-18.3-9.8-33.3v-50.3c0-1.1-0.9-2.1-2.1-2.1h-11.2
				c-1.1,0-2.1-0.9-2.1-2.1v-14.7c0-0.7,0.3-1.3,0.9-1.7l18.2-12.8c0.3-0.2,0.6-0.5,0.7-0.9l10.6-24.9c0.3-0.8,1.1-1.3,1.9-1.3h25.3
				c1.1,0,2.1,0.9,2.1,2.1v21.3c0,1.1,0.9,2.1,2.1,2.1h27c1.1,0,2.1,0.9,2.1,2.1v28.7c0,1.1-0.9,2.1-2.1,2.1h-27
				c-1.1,0-2.1,0.9-2.1,2.1v47.4C634.8,306.9,638.8,311,646.7,311z"/>
			<path d="M733.1,345.7c-21.2,0-37.6-5.6-49.3-16.9c-11.7-11.3-17.6-27.3-17.6-48.1c0-21.5,5.4-37.9,16.3-49.4
				c10.8-11.5,26.3-17.2,46.5-17.2c19.1,0,33.9,5,44.4,15c10.4,10,15.7,24.4,15.7,43.1v17.4c0,1.1-0.9,2.1-2.1,2.1h-74.1
				c-1.3,0-2.2,1.1-2.1,2.4c0.7,6,3.3,10.8,7.6,14.4c4.9,4,11.6,6.1,20,6.1c7.7,0,14.8-0.7,21.3-2.2c5.6-1.3,11.7-3.3,18.1-6.1
				c1.4-0.6,2.9,0.4,2.9,1.9v27c0,0.8-0.5,1.5-1.2,1.9c-6.5,3.2-13.2,5.4-20.2,6.7C752,345,743.3,345.7,733.1,345.7z M730.5,243.9
				c-5.2,0-9.5,1.6-13,4.9c-3.1,2.9-5,7.2-5.8,12.9c-0.2,1.3,0.8,2.4,2.1,2.4H747c1.2,0,2.2-1.1,2.1-2.3c-0.5-5.1-2.2-9.2-5.1-12.4
				C740.6,245.8,736.1,243.9,730.5,243.9z"/>
		</g>
	</g>
	<g>
		<path class="st0" d="M554,149.9c2.1,10,2.2,22.6,0.1,32.6c-1.4,6.4-3.4,10.5-5.5,10.5c-2.2,0-4.2-4-5.5-10.5
			c-2.1-9.9-2.1-22.3-0.1-32.4l5.4-30.8L554,149.9z"/>
		<g class="st1">
			<path class="st0" d="M525.5,152.8c9,5.3,16.5,14.7,19.3,24.7c1.8,6.4,1.4,11.7-1.7,14.1c-3.1,2.4-8.3,1.5-14-1.8
				c-8.9-5.2-16.2-14.6-19.3-24.5l-10.6-29.4L525.5,152.8z"/>
			<path class="st0" d="M570.8,152c-9.3,5-16.8,14.5-19.3,24.7c-1.6,6.6-1,12,2.4,14.6c3.4,2.6,8.8,2,14.8-1.3
				c9.2-5,16.5-14.4,19.3-24.5l9.8-29.9L570.8,152z"/>
		</g>
		<g class="st1">
			<path class="st0" d="M522.2,175.2c6.8-2.1,14.9-1.3,21,2.3c4,2.3,6.3,5.1,5.9,7.9s-3.2,5.1-7.5,6.4c-6.7,2.1-14.7,1.2-20.9-2.2
				l-19.1-9.2L522.2,175.2z"/>
			<path class="st0" d="M574.8,175.2c-6.8-2.1-14.9-1.3-21,2.3c-4,2.3-6.3,5.1-5.9,7.9c0.3,2.8,3.2,5.1,7.5,6.4
				c6.7,2.1,14.7,1.2,20.9-2.2l19.1-9.2L574.8,175.2z"/>
		</g>
		<g class="st1">
			<path class="st0" d="M532,194.2c1.9-1.4,5.6-2.5,9.6-2.9c2.6-0.3,4.7-0.2,5.7,0.3c1,0.5,0.8,1.3-0.5,2.1
				c-1.9,1.3-5.6,2.4-9.5,2.9l-11.7,1.5L532,194.2z"/>
			<path class="st0" d="M565,194.2c-1.9-1.4-5.6-2.5-9.6-2.9c-2.6-0.3-4.7-0.2-5.7,0.3c-1,0.5-0.8,1.3,0.5,2.1
				c1.9,1.3,5.6,2.4,9.5,2.9l11.7,1.5L565,194.2z"/>
		</g>
		<path class="st2" d="M564.7,138.5c6.3,12.7,6.5,28.5,0.2,41.2c-4.1,8.1-9.9,13.2-16.3,13.2c-6.4,0-12.2-5.1-16.3-13.2
			c-6.3-12.6-6.3-28.2-0.3-41l15.8-39L564.7,138.5z"/>
	</g>
</g>
</svg>
