<?xml version="1.0" encoding="iso-8859-1"?>
<!-- Generator: Adobe Illustrator 16.0.0, SVG Export Plug-In . SVG Version: 6.00 Build 0)  -->
<!DOCTYPE svg PUBLIC "-//W3C//DTD SVG 1.1//EN" "http://www.w3.org/Graphics/SVG/1.1/DTD/svg11.dtd">
<svg version="1.1" id="Layer_1" xmlns="http://www.w3.org/2000/svg"  x="0px" y="0px"
	 width="18px" height="18px" viewBox="0 0 18 18" style="enable-background:new 0 0 18 18;" xml:space="preserve">
<path style="fill:#A1B1BE;" d="M18,8.313c0-0.447-0.362-0.809-0.809-0.809h-0.223c-0.518,0-0.97-0.334-1.138-0.825
	c-0.101-0.296-0.221-0.583-0.358-0.86c-0.232-0.467-0.151-1.027,0.218-1.396l0.159-0.159c0.316-0.316,0.316-0.828,0-1.144
	L14.878,2.15c-0.316-0.316-0.828-0.316-1.144,0l-0.17,0.171c-0.367,0.367-0.924,0.449-1.391,0.22
	C11.9,2.407,11.616,2.29,11.324,2.191c-0.492-0.167-0.829-0.62-0.829-1.139V0.809C10.495,0.362,10.133,0,9.687,0H8.313
	C7.866,0,7.504,0.362,7.504,0.809v0.267c0,0.517-0.333,0.968-0.821,1.137C6.398,2.311,6.121,2.427,5.854,2.56
	C5.386,2.792,4.826,2.711,4.457,2.342L4.265,2.15c-0.316-0.316-0.828-0.316-1.144,0L2.15,3.122c-0.315,0.316-0.315,0.828,0,1.144
	l0.203,0.203C2.721,4.836,2.803,5.393,2.574,5.86c-0.13,0.265-0.243,0.538-0.34,0.819c-0.168,0.491-0.62,0.826-1.138,0.826H0.809
	C0.362,7.505,0,7.867,0,8.313v1.374c0,0.447,0.362,0.809,0.809,0.809h0.288c0.519,0,0.97,0.335,1.138,0.826
	c0.097,0.281,0.21,0.554,0.34,0.819c0.229,0.467,0.147,1.023-0.221,1.391L2.15,13.735c-0.315,0.316-0.315,0.828,0,1.144l0.971,0.975
	c0.316,0.316,0.828,0.316,1.144,0l0.192-0.199c0.369-0.366,0.929-0.446,1.396-0.215c0.268,0.133,0.544,0.25,0.83,0.343
	c0.488,0.176,0.821,0.621,0.821,1.135v0.273C7.504,17.637,7.866,18,8.313,18h1.373c0.447,0,0.809-0.363,0.809-0.808v-0.238
	c0-0.526,0.337-0.983,0.829-1.147c0.292-0.094,0.575-0.21,0.849-0.348c0.466-0.229,1.023-0.147,1.391,0.22l0.17,0.175
	c0.316,0.316,0.828,0.316,1.144,0l0.971-0.975c0.316-0.316,0.316-0.828,0-1.144l-0.16-0.159c-0.369-0.369-0.449-0.928-0.217-1.396
	c0.137-0.277,0.257-0.564,0.358-0.86c0.168-0.49,0.62-0.825,1.138-0.825h0.223c0.446,0,0.809-0.362,0.809-0.809V8.313z
	 M10.097,13.531c-3.392,0.752-6.347-2.204-5.595-5.595C4.881,6.227,6.26,4.848,7.969,4.469c3.392-0.751,6.346,2.203,5.594,5.595
	C13.185,11.773,11.806,13.152,10.097,13.531z"/>
</svg>
