<?xml version="1.0" encoding="iso-8859-1"?>
<!-- Generator: Adobe Illustrator 16.0.0, SVG Export Plug-In . SVG Version: 6.00 Build 0)  -->
<!DOCTYPE svg PUBLIC "-//W3C//DTD SVG 1.1//EN" "http://www.w3.org/Graphics/SVG/1.1/DTD/svg11.dtd">
<svg version="1.1" id="Layer_1" xmlns="http://www.w3.org/2000/svg"  x="0px" y="0px"
	 width="19px" height="24px" viewBox="0 0 19 24" style="enable-background:new 0 0 19 24;" xml:space="preserve">
<path style="fill:#91A1B0;" d="M12.709,3.22c0,1.779-1.435,3.221-3.206,3.221S6.298,4.999,6.298,3.22C6.298,1.442,7.733,0,9.503,0
	S12.709,1.442,12.709,3.22z M4.864,0.932c0.343,0.049,0.551,0.409,0.427,0.734C4.779,3.013,4.954,4.426,5.69,5.589
	c0.188,0.296,0.042,0.687-0.288,0.804c-1.921,0.684-3.941-0.862-3.737-2.95C1.817,1.884,3.254,0.697,4.864,0.932z M14.136,0.932
	c-0.343,0.049-0.551,0.409-0.427,0.734c0.512,1.347,0.337,2.759-0.4,3.923c-0.187,0.296-0.041,0.687,0.288,0.804
	c1.921,0.684,3.941-0.862,3.738-2.95C17.184,1.884,15.746,0.697,14.136,0.932z M3.663,15.386c0.082,0.914,0.717,1.664,1.558,1.918
	c0.204,0.062,0.39,0.276,0.409,0.49l0.304,3.419c0.036,0.404-0.281,0.753-0.686,0.753H3.371c-0.424,0-0.777-0.329-0.81-0.754
	l-0.427-5.635c-0.02-0.283-0.248-0.506-0.53-0.518L1.25,15.044c-0.406-0.017-0.737-0.333-0.773-0.74L0,8.932
	c0-0.716,0.578-1.296,1.29-1.296h1.502c0.333,0,0.568,0.328,0.462,0.646C3.163,8.554,3.113,8.846,3.113,9.149L3.663,15.386z
	 M15.337,15.386c-0.082,0.914-0.716,1.664-1.558,1.918c-0.204,0.062-0.39,0.276-0.409,0.49l-0.305,3.419
	c-0.036,0.405,0.281,0.753,0.686,0.753h1.877c0.425,0,0.777-0.329,0.81-0.753l0.427-5.635c0.02-0.283,0.248-0.506,0.53-0.518
	l0.354-0.015c0.406-0.017,0.737-0.334,0.773-0.741L19,8.932c0-0.716-0.578-1.296-1.29-1.296h-1.502
	c-0.334,0-0.568,0.328-0.462,0.646c0.091,0.273,0.141,0.564,0.141,0.868L15.337,15.386z M4.941,15.261
	c0.042,0.471,0.425,0.837,0.896,0.856l0.404,0.016c0.324,0.013,0.585,0.27,0.606,0.595l0.49,6.423C7.375,23.632,7.776,24,8.26,24
	h2.509c0.484,0,0.886-0.368,0.922-0.849l0.487-6.429c0.022-0.322,0.283-0.576,0.604-0.59l0.403-0.017
	c0.463-0.02,0.84-0.381,0.881-0.844l0.544-6.122c0-0.816-0.658-1.477-1.47-1.477H5.864c-0.812,0-1.47,0.661-1.47,1.477L4.941,15.261
	z"/>
</svg>
