<?xml version="1.0" encoding="iso-8859-1"?>
<!-- Generator: Adobe Illustrator 16.0.0, SVG Export Plug-In . SVG Version: 6.00 Build 0)  -->
<!DOCTYPE svg PUBLIC "-//W3C//DTD SVG 1.1 Tiny//EN" "http://www.w3.org/Graphics/SVG/1.1/DTD/svg11-tiny.dtd">
<svg version="1.1" baseProfile="tiny" id="Layer_1" xmlns="http://www.w3.org/2000/svg" xmlns:xlink="http://www.w3.org/1999/xlink"
	 x="0px" y="0px" width="35px" height="42px" viewBox="0 0 35 42" xml:space="preserve">
<path fill-rule="evenodd" fill="#C5CDD4" d="M2.76,1.87h19.35v10.28c0,0.52,0.41,0.94,0.92,0.94l10.13-0.01V39.2
	c0,0.51-0.42,0.93-0.92,0.93H2.76c-0.5,0-0.92-0.42-0.92-0.93V2.8C1.84,2.29,2.26,1.87,2.76,1.87z M23.94,3.19l7.91,8.02l-7.9,0.01
	L23.94,3.19z M32.24,42c1.52,0,2.76-1.26,2.76-2.8V12.15c0-0.25-0.1-0.48-0.27-0.66L23.68,0.27C23.5,0.1,23.27,0,23.03,0H2.76
	C1.24,0,0,1.26,0,2.8v36.4C0,40.74,1.24,42,2.76,42H32.24z"/>
<path fill="#4C6379" d="M14.5,14.9H7.88C7.4,14.9,7,14.47,7,13.95S7.4,13,7.88,13h6.62c0.49,0,0.88,0.43,0.88,0.95
	S14.99,14.9,14.5,14.9z"/>
<path fill="#4C6379" d="M23.5,20.9H7.88C7.4,20.9,7,20.47,7,19.95S7.4,19,7.88,19H23.5c0.49,0,0.88,0.43,0.88,0.95
	S23.99,20.9,23.5,20.9z"/>
<path fill="#4C6379" d="M23.5,26.9H7.88C7.4,26.9,7,26.47,7,25.95S7.4,25,7.88,25H23.5c0.49,0,0.88,0.43,0.88,0.95
	S23.99,26.9,23.5,26.9z"/>
<path fill="#4C6379" d="M23.5,32.9H7.88C7.4,32.9,7,32.47,7,31.95S7.4,31,7.88,31H23.5c0.49,0,0.88,0.43,0.88,0.95
	S23.99,32.9,23.5,32.9z"/>
<path fill-rule="evenodd" fill="#F6F6F6" d="M2.76,1.87h19.35v10.28c0,0.52,0.41,0.94,0.92,0.94l10.13-0.01V39.2
	c0,0.51-0.42,0.93-0.92,0.93H2.76c-0.5,0-0.92-0.42-0.92-0.93V2.8C1.84,2.29,2.26,1.87,2.76,1.87z"/>
</svg>
