<?xml version="1.0" encoding="iso-8859-1"?>
<!-- Generator: Adobe Illustrator 16.0.0, SVG Export Plug-In . SVG Version: 6.00 Build 0)  -->
<!DOCTYPE svg PUBLIC "-//W3C//DTD SVG 1.1 Tiny//EN" "http://www.w3.org/Graphics/SVG/1.1/DTD/svg11-tiny.dtd">
<svg version="1.1" baseProfile="tiny" id="Layer_1" xmlns="http://www.w3.org/2000/svg"
	 x="0px" y="0px" width="31px" height="33px" viewBox="0 0 31 33" xml:space="preserve">
<path fill-rule="evenodd" fill="#F6F6F6" d="M1,7v17c0,0,0.21,2.46,2.16,3h15.91C19.02,26.67,19,26.34,19,26c0-3.87,3.13-7,7-7
	c0.69,0,1.37,0.1,2,0.29V7C28,7,16.46,9.28,1,7z"/>
<path fill-rule="evenodd" fill="#C5CDD4" d="M18.55,14.03c0-0.4,0.32-0.72,0.7-0.72h3.66c0.39,0,0.7,0.32,0.7,0.72
	c0,0.4-0.31,0.72-0.7,0.72h-1.2c-0.36,3.75-3.43,6.71-7.21,6.71s-6.85-2.96-7.21-6.71h-1.2c-0.39,0-0.7-0.32-0.7-0.72
	c0-0.4,0.31-0.72,0.7-0.72h3.65c0.39,0,0.71,0.32,0.71,0.72c0,0.4-0.32,0.72-0.71,0.72H8.69c0.36,2.96,2.81,5.27,5.81,5.27
	s5.45-2.31,5.81-5.27h-1.06C18.87,14.75,18.55,14.43,18.55,14.03z M24.71,1.44H4.29c-1.59,0-2.88,1.32-2.88,2.94
	c0,1.63,1.29,2.95,2.88,2.95h20.42c1.59,0,2.88-1.32,2.88-2.95C27.59,2.76,26.3,1.44,24.71,1.44z M28.3,17.52
	c-0.39,0-0.71-0.32-0.71-0.72V7.6c-0.76,0.72-1.77,1.16-2.88,1.16H4.29c-1.11,0-2.12-0.44-2.88-1.16v15.98c0,2.2,1.75,3.98,3.9,3.98
	h11.75c0.39,0,0.7,0.33,0.7,0.72c0,0.4-0.31,0.72-0.7,0.72H5.31C2.38,29,0,26.57,0,23.58V3.9c0-0.12,0.03-0.22,0.08-0.32
	C0.45,1.55,2.19,0,4.29,0h20.42c2.09,0,3.84,1.55,4.21,3.58C28.97,3.68,29,3.78,29,3.9v12.9C29,17.2,28.69,17.52,28.3,17.52z"/>
<path fill-rule="evenodd" fill="#28BD8B" d="M30.79,27c-0.54,0.73-2.13,1.26-4.29,1.26s-3.75-0.53-4.29-1.26l-0.19-0.15
	C22.01,26.9,22,26.94,22,26.99v1.02c0,0.31,0.18,0.6,0.52,0.85l0.09,0.04l0.02,0.04c0.76,0.51,2.14,0.85,3.87,0.85
	c2.64,0,4.5-0.8,4.5-1.78v-1.02c0-0.05-0.01-0.09-0.02-0.14L30.79,27z M26.5,22c-2.64,0-4.5,0.8-4.5,1.78v1.02
	c0,0.99,1.86,1.78,4.5,1.78S31,25.79,31,24.8v-1.02C31,22.8,29.14,22,26.5,22z M30.8,30.21c-0.55,0.73-2.14,1.26-4.3,1.26
	s-3.75-0.53-4.3-1.26l-0.18-0.15C22.01,30.11,22,30.15,22,30.2v1.02C22,32.2,23.86,33,26.5,33s4.5-0.8,4.5-1.78V30.2
	c0-0.05-0.01-0.09-0.02-0.14L30.8,30.21z"/>
</svg>
