<?xml version="1.0" encoding="iso-8859-1"?>
<!-- Generator: Adobe Illustrator 16.0.0, SVG Export Plug-In . SVG Version: 6.00 Build 0)  -->
<!DOCTYPE svg PUBLIC "-//W3C//DTD SVG 1.1 Tiny//EN" "http://www.w3.org/Graphics/SVG/1.1/DTD/svg11-tiny.dtd">
<svg version="1.1" baseProfile="tiny" id="Layer_1" xmlns="http://www.w3.org/2000/svg"
	 x="0px" y="0px" width="15px" height="15px" viewBox="0 0 15 15" xml:space="preserve">
<path fill-rule="evenodd" fill="#FFFFFF" d="M11.25,9.37V8.439V4.69H9.38H5.63H3.75v3.75V9.37v3.75h7.5V9.37z M8.439,1.87H6.56v0.94
	h1.879V1.87z M14.061,4.69H13.13v0.93v0.94V7.5v6.561c0,0.52-0.42,0.939-0.94,0.939H2.81c-0.52,0-0.93-0.42-0.93-0.939V7.5V6.56
	V5.62V4.69H0.94H0V3.75c0-0.52,0.42-0.94,0.94-0.94h1.87h1.88V0.94C4.69,0.42,5.11,0,5.63,0h3.75c0.511,0,0.931,0.42,0.931,0.94
	v1.87h1.879h1.871C14.58,2.81,15,3.23,15,3.75v0.94H14.061z"/>
</svg>
