<?xml version="1.0" encoding="iso-8859-1"?>
<!-- Generator: Adobe Illustrator 16.0.0, SVG Export Plug-In . SVG Version: 6.00 Build 0)  -->
<!DOCTYPE svg PUBLIC "-//W3C//DTD SVG 1.1//EN" "http://www.w3.org/Graphics/SVG/1.1/DTD/svg11.dtd">
<svg version="1.1" id="Layer_1" xmlns="http://www.w3.org/2000/svg"  x="0px" y="0px"
	 width="21px" height="20px" viewBox="0 0 21 20" style="enable-background:new 0 0 21 20;" xml:space="preserve">
<path style="fill-rule:evenodd;clip-rule:evenodd;fill:#91A1B0;" d="M19.133,7.775h-0.249c-1.031,0-1.867,0.83-1.867,1.853v0.743
	c0,1.023,0.836,1.854,1.867,1.854h0.249c1.031,0,1.867-0.831,1.867-1.854V9.628C21,8.605,20.164,7.775,19.133,7.775z M13.368,4.003
	c-1.031,0-1.867,0.83-1.867,1.854v8.282c0,1.024,0.835,1.854,1.867,1.854c1.031,0,1.867-0.83,1.867-1.854V5.857
	C15.235,4.833,14.399,4.003,13.368,4.003z M7.603,0C6.572,0,5.736,0.83,5.736,1.855v16.292C5.736,19.17,6.572,20,7.603,20
	c1.031,0,1.867-0.83,1.867-1.854V1.855C9.469,0.83,8.634,0,7.603,0z M1.867,3.864C0.836,3.864,0,4.694,0,5.718V14
	c0,1.025,0.836,1.855,1.867,1.855S3.733,15.024,3.733,14V5.718C3.733,4.694,2.897,3.864,1.867,3.864z"/>
</svg>
