<?xml version="1.0" encoding="iso-8859-1"?>
<!-- Generator: Adobe Illustrator 16.0.0, SVG Export Plug-In . SVG Version: 6.00 Build 0)  -->
<!DOCTYPE svg PUBLIC "-//W3C//DTD SVG 1.1//EN" "http://www.w3.org/Graphics/SVG/1.1/DTD/svg11.dtd">
<svg version="1.1" id="Layer_1" xmlns="http://www.w3.org/2000/svg"  x="0px" y="0px"
	 width="20px" height="20px" viewBox="0 0 20 20" style="enable-background:new 0 0 20 20;" xml:space="preserve">
<path style="fill-rule:evenodd;clip-rule:evenodd;fill:#91A1B0;" d="M0.607,2.612C0.272,2.612,0,2.372,0,2.076v-1.54
	C0,0.24,0.272,0,0.607,0h4.146l4.091,11.395c0.089,0.21,0.315,0.349,0.569,0.349h9.979c0.335,0,0.607,0.24,0.607,0.536v1.544
	c0,0.296-0.272,0.536-0.607,0.536H6.948L2.855,2.961c-0.089-0.21-0.316-0.349-0.569-0.349H0.607z M17.787,16.008
	c1.152,0,2.087,0.894,2.087,1.996c0,1.103-0.935,1.996-2.087,1.996c-1.153,0-2.087-0.894-2.087-1.996
	C15.7,16.902,16.634,16.008,17.787,16.008z M8.956,16.008c1.153,0,2.087,0.894,2.087,1.996c0,1.103-0.935,1.996-2.087,1.996
	c-1.152,0-2.086-0.894-2.086-1.996C6.87,16.902,7.804,16.008,8.956,16.008z"/>
</svg>
