<?xml version="1.0" encoding="iso-8859-1"?>
<!-- Generator: Adobe Illustrator 16.0.0, SVG Export Plug-In . SVG Version: 6.00 Build 0)  -->
<!DOCTYPE svg PUBLIC "-//W3C//DTD SVG 1.1 Tiny//EN" "http://www.w3.org/Graphics/SVG/1.1/DTD/svg11-tiny.dtd">
<svg version="1.1" baseProfile="tiny" id="Layer_1" xmlns="http://www.w3.org/2000/svg"
	 x="0px" y="0px" width="20.002px" height="20px" viewBox="0 0 20.002 20" xml:space="preserve">
<path fill="#4C6379" d="M8.78,15.96c-3.96,0-7.18-3.22-7.18-7.18c0-3.96,3.22-7.18,7.18-7.18c3.96,0,7.18,3.22,7.18,7.18
	C15.96,12.74,12.74,15.96,8.78,15.96z M19.77,18.641l-4.25-4.25c1.271-1.521,2.041-3.48,2.041-5.611C17.561,3.93,13.63,0,8.78,0
	C3.93,0,0,3.93,0,8.78c0,4.85,3.93,8.781,8.78,8.781c2.14,0,4.09-0.771,5.61-2.04l4.25,4.25C18.79,19.92,19,20,19.2,20
	c0.21,0,0.41-0.08,0.569-0.229C20.08,19.45,20.08,18.95,19.77,18.641z"/>
</svg>
