<?xml version="1.0" encoding="iso-8859-1"?>
<!-- Generator: Adobe Illustrator 16.0.0, SVG Export Plug-In . SVG Version: 6.00 Build 0)  -->
<!DOCTYPE svg PUBLIC "-//W3C//DTD SVG 1.1//EN" "http://www.w3.org/Graphics/SVG/1.1/DTD/svg11.dtd">
<svg version="1.1" id="Layer_1" xmlns="http://www.w3.org/2000/svg"  x="0px" y="0px"
	 width="16px" height="17px" viewBox="0 0 16 17" style="enable-background:new 0 0 16 17;" xml:space="preserve">
<path style="fill:#FFFFFF;" d="M8.004,8.904c-0.586,0-1.061-0.477-1.061-1.064V1.064C6.943,0.477,7.418,0,8.004,0
	C8.59,0,9.065,0.477,9.065,1.064V7.84C9.065,8.428,8.59,8.904,8.004,8.904z M10.927,2.621c-0.281,0.484-0.125,1.104,0.341,1.414
	c1.635,1.089,2.7,2.971,2.644,5.101c-0.083,3.119-2.709,5.723-5.819,5.771c-3.309,0.051-6.007-2.625-6.007-5.932
	c0-2.069,1.057-3.888,2.658-4.949c0.463-0.307,0.614-0.93,0.334-1.412C4.786,2.113,4.13,1.938,3.645,2.254
	C1.475,3.67,0.029,6.107,0,8.891c-0.044,4.302,3.469,7.977,7.756,8.105C12.286,17.135,16,13.488,16,8.976
	c0-2.813-1.446-5.28-3.63-6.711C11.882,1.944,11.221,2.115,10.927,2.621z"/>
</svg>
