<?xml version="1.0" encoding="iso-8859-1"?>
<!-- Generator: Adobe Illustrator 16.0.0, SVG Export Plug-In . SVG Version: 6.00 Build 0)  -->
<!DOCTYPE svg PUBLIC "-//W3C//DTD SVG 1.1//EN" "http://www.w3.org/Graphics/SVG/1.1/DTD/svg11.dtd">
<svg version="1.1" id="Layer_1" xmlns="http://www.w3.org/2000/svg"  x="0px" y="0px"
	 width="31px" height="29.53px" viewBox="0 0 31 29.53" style="enable-background:new 0 0 31 29.53;" xml:space="preserve">
<path style="fill-rule:evenodd;clip-rule:evenodd;fill:#F6F6F6;" d="M14.36,18.82c-0.95,0-1.82-0.32-2.59-0.82
	c-0.26,0.21-0.68,0.52-1.26,0.85c-0.09,0.06-0.2,0.08-0.31,0.08h-0.1c-0.57,0.31-1.28,0.63-2.13,0.9c-2.73,0.86-5.55,2.39-5.97,7.15
	c1.44,0.25,5.76,0.89,12.5,1.02c1.18-0.02,2.28-0.06,3.3-0.11c-0.51-1.02-0.8-2.17-0.8-3.39c0-2.11,0.87-4.02,2.27-5.38l-0.37-0.19
	h-0.1c-0.11,0-0.22-0.02-0.31-0.08c-0.58-0.33-1-0.64-1.26-0.85c-0.77,0.5-1.64,0.82-2.59,0.82H14.5H14.36z"/>
<path style="fill:#28BD8B;" d="M20.61,29c0.26,0,0.51-0.12,0.65-0.37l1.57-2.14l2.33,1.4c0.14,0.1,0.31,0.15,0.49,0.15
	c0.06,0,0.13-0.01,0.2-0.02c0.23-0.05,0.43-0.21,0.55-0.42l1.91-4.04L31,24.68L29.63,19l-5.48,2.83l2.46,1.02l-1.33,3.06l-2.31-1.35
	c-0.14-0.1-0.31-0.14-0.47-0.14c-0.06,0-0.12,0.01-0.17,0.02c-0.22,0.06-0.41,0.2-0.52,0.39L20,27.49l0.07,1.29l0.1,0.08
	C20.311,28.95,20.46,29,20.61,29z"/>
<path style="fill-rule:evenodd;clip-rule:evenodd;fill:#C5CDD4;" d="M8.32,11.26C7.541,9.84,7.661,9.21,7.75,9
	c0.11-0.25,0.34-0.31,0.35-0.31c0.33-0.06,0.56-0.35,0.54-0.68c0-0.02-0.08-1.65,0.31-3.15C9,4.72,10,1.32,14.44,1.32
	s5.44,3.4,5.48,3.54c0.4,1.5,0.32,3.13,0.32,3.15c-0.02,0.33,0.21,0.62,0.54,0.68c0,0,0.23,0.06,0.34,0.3
	c0.1,0.2,0.23,0.83-0.56,2.27l-0.1,0.06c-0.3,0.19-0.52,0.32-0.61,0.61c-0.32,1.11-2.48,5.23-5.41,5.23s-5.1-4.12-5.42-5.23
	c-0.08-0.29-0.3-0.42-0.6-0.61L8.32,11.26z M14.44,18.48c1.07,0,2.05-0.38,2.9-0.97c0.26,0.22,0.76,0.6,1.47,1.01
	c0.1,0.05,0.22,0.08,0.33,0.08c0.23,0,0.45-0.12,0.57-0.33c0.19-0.32,0.08-0.72-0.24-0.9c-0.49-0.28-0.86-0.54-1.09-0.73
	c1.4-1.36,2.34-3.15,2.68-4.14l0.1-0.06c0.23-0.14,0.39-0.24,0.49-0.42c0.85-1.51,1.08-2.72,0.67-3.59
	c-0.2-0.42-0.49-0.67-0.75-0.82c0-0.65-0.05-1.89-0.37-3.09C21.19,4.47,19.92,0,14.44,0s-6.75,4.47-6.76,4.52
	c-0.32,1.2-0.37,2.44-0.37,3.09c-0.26,0.15-0.55,0.4-0.75,0.82c-0.41,0.87-0.18,2.08,0.67,3.59c0.1,0.18,0.26,0.28,0.49,0.42
	l0.1,0.06c0.33,0.99,1.28,2.78,2.68,4.14c-0.5,0.4-1.58,1.14-3.22,1.65C4.3,19.23,0.311,21.21,0,27.61
	c-0.01,0.32,0.21,0.61,0.53,0.68c0.24,0.05,6.06,1.24,16.73,1.24c0.36,0,0.66-0.3,0.66-0.66c0-0.37-0.3-0.66-0.66-0.66
	c-8.67,0-14.19-0.82-15.9-1.11c0.45-5.03,3.43-6.64,6.32-7.55c2.07-0.65,3.37-1.63,3.86-2.04C12.391,18.09,13.371,18.48,14.44,18.48
	z"/>
</svg>
